<?xml version="1.0"?>
<svg xmlns="http://www.w3.org/2000/svg" xmlns:xlink="http://www.w3.org/1999/xlink" xmlns:svgjs="http://svgjs.com/svgjs"
     version="1.1" width="512" height="512" x="0" y="0" viewBox="0 0 512 512" style="enable-background:new 0 0 512 512"
     xml:space="preserve" class=""><g>
<circle xmlns="http://www.w3.org/2000/svg" style="" cx="256" cy="256" r="256" fill="#32CD32" data-original="#ffca28"
        class=""/>
<g xmlns="http://www.w3.org/2000/svg">
	<path style=""
          d="M399.68,208.32c-8.832,0-16-7.168-16-16c0-17.632-14.336-32-32-32s-32,14.368-32,32   c0,8.832-7.168,16-16,16s-16-7.168-16-16c0-35.296,28.704-64,64-64s64,28.704,64,64C415.68,201.184,408.512,208.32,399.68,208.32z"
          fill="#000" data-original="#6d4c41"/>
    <path style=""
          d="M207.68,208.32c-8.832,0-16-7.168-16-16c0-17.632-14.368-32-32-32s-32,14.368-32,32   c0,8.832-7.168,16-16,16s-16-7.168-16-16c0-35.296,28.704-64,64-64s64,28.704,64,64C223.68,201.184,216.512,208.32,207.68,208.32z"
          fill="#000" data-original="#6d4c41"/>
</g>
<path xmlns="http://www.w3.org/2000/svg" style=""
      d="M437.696,294.688c-3.04-4-7.744-6.368-12.736-6.368H86.4c-5.024,0-9.728,2.336-12.736,6.336  c-3.072,4.032-4.032,9.184-2.688,14.016C94.112,390.88,170.08,448.32,255.648,448.32s161.536-57.44,184.672-139.648  C441.696,303.84,440.736,298.688,437.696,294.688z"
      fill="#fafafa" data-original="#fafafa"/>
<g xmlns="http://www.w3.org/2000/svg">
</g>
<g xmlns="http://www.w3.org/2000/svg">
</g>
<g xmlns="http://www.w3.org/2000/svg">
</g>
<g xmlns="http://www.w3.org/2000/svg">
</g>
<g xmlns="http://www.w3.org/2000/svg">
</g>
<g xmlns="http://www.w3.org/2000/svg">
</g>
<g xmlns="http://www.w3.org/2000/svg">
</g>
<g xmlns="http://www.w3.org/2000/svg">
</g>
<g xmlns="http://www.w3.org/2000/svg">
</g>
<g xmlns="http://www.w3.org/2000/svg">
</g>
<g xmlns="http://www.w3.org/2000/svg">
</g>
<g xmlns="http://www.w3.org/2000/svg">
</g>
<g xmlns="http://www.w3.org/2000/svg">
</g>
<g xmlns="http://www.w3.org/2000/svg">
</g>
<g xmlns="http://www.w3.org/2000/svg">
</g>
</g></svg>
